PathFileType	4	(X/Y/Z)	19_1_5_p0_0-198_filt_butterworth.trc
DataRate	CameraRate	NumFrames	NumMarkers	Units	OrigDataRate	OrigDataStartFrame	OrigNumFrames
59.0	59.0	6	27	m	59.0	74	198
Frame#	Time	RHip			RKnee			RAnkle			RBigToe			RSmallToe			RHeel			LHip			LKnee			LAnkle			LBigToe			LSmallToe			LHeel			Neck			Head			Nose			RShoulder			RElbow			RWrist			RThumb			RIndex			RPinky			LShoulder			LElbow			LWrist			LThumb			LIndex			LPinky			
		X1	Y1	Z1	X2	Y2	Z2	X3	Y3	Z3	X4	Y4	Z4	X5	Y5	Z5	X6	Y6	Z6	X7	Y7	Z7	X8	Y8	Z8	X9	Y9	Z9	X10	Y10	Z10	X11	Y11	Z11	X12	Y12	Z12	X13	Y13	Z13	X14	Y14	Z14	X15	Y15	Z15	X16	Y16	Z16	X17	Y17	Z17	X18	Y18	Z18	X19	Y19	Z19	X20	Y20	Z20	X21	Y21	Z21	X22	Y22	Z22	X23	Y23	Z23	X24	Y24	Z24	X25	Y25	Z25	X26	Y26	Z26	X27	Y27	Z27	
74	1.2542372881355932	0.3034868727139894	0.5504273199953016	0.892297731763395	0.2818743128984439	0.5536375517786568	1.3052504575217654	0.26443567720967615	0.6066287053344063	1.7476498798423616	0.2742658333662465	0.4129781154485492	1.7536738529617253	0.3415727475504635	0.42552209728354573	1.7443496908634786	0.2407532370925334	0.6541736275725224	1.80189326102483	0.08960705585436438	0.5230679832091072	0.8943298773634709	0.08471498786740782	0.5204315246653395	1.285209248247616	0.07394029118517272	0.5500529589241248	1.7251756395035325	0.10716539852935178	0.333683624717474	1.7153448344142437	0.05047090614562156	0.3941380962170332	1.7426117759608966	0.08727335181849721	0.5791829054969297	1.783878424569581	0.22401577164682795	0.5247213934306504	0.3035940926823161	0.303233202226192	0.5299976288491121	0.04987263468221111	0.2806037430111614	0.42932383159808485	0.18164458051662763	0.3641838494833815	0.5671776651179965	0.4153136809544062	0.36848842825331035	0.44304521530529273	0.6527181315284232	0.2628106928928904	0.3010315759278954	0.8081558935446185	0.17568693553887635	0.2584319725457683	0.9002600231622757	0.17801786152041646	0.2682817680398686	0.9261135430678878	0.18875495756713273	0.3135622810948564	0.9405209535855497	0.052387614737282893	0.5399429316333192	0.37614575721604737	0.036480491715161247	0.449721068708905	0.6208514920521683	0.13958118634976233	0.2780460125737142	0.7803607593807734	0.2070433523327003	0.24174857279103823	0.8599251688483693	0.21008467540207346	0.22714004979944263	0.8856216528992659	0.16904244602768234	0.25914117251085	0.9184057681662079
75	1.271186440677966	0.3034643245350586	0.5504845325142176	0.8922788292725445	0.28253679493746314	0.5574215800507583	1.3052118859585427	0.2643995614454532	0.6065847129739117	1.7475991877794952	0.2742928821876453	0.4130615391201117	1.7535381502752647	0.34151146786776837	0.42555649371606474	1.7441609151733828	0.24061895130656732	0.6537208619856756	1.8018109652615844	0.08963263504951377	0.5232900322583159	0.8960843644514	0.08483108255560834	0.5217681148439778	1.2858358690742726	0.07379738353892028	0.5500096980192197	1.7256852389514383	0.10742449102873361	0.33477089501407314	1.7156286412962563	0.050473197494960716	0.3941081774191476	1.7426176058134826	0.08737158457378807	0.5758913740891878	1.782620314012238	0.22403611951042504	0.5246821169643199	0.30355293631713304	0.30314538896610277	0.5299638335080368	0.05027565677064215	0.28066179417021075	0.42940286230490493	0.18127400788428916	0.36454237028201053	0.568043748027072	0.4180963774338714	0.3704928202253932	0.4427617940438215	0.6529038646505588	0.26250268971773233	0.2995048454066537	0.8080396061332183	0.17461765718529138	0.2583179702538323	0.9004036190882585	0.1780347636140655	0.2685386413250466	0.9261376852165903	0.18789996718527643	0.30978812698034136	0.9395299935169104	0.052379853454117296	0.5399435552731671	0.376106420429443	0.03597924881932863	0.4496258964472805	0.6207690912473129	0.1391151858761876	0.27927955510949465	0.7805849469974718	0.20649030328309104	0.24319643807130747	0.8597624179108676	0.210107468843446	0.22731107648222046	0.8857866739922955	0.1687550578091454	0.25999928038743986	0.9189381456520287
76	1.2881355932203389	0.3034353080364628	0.5504635915018534	0.8922000810825772	0.28267914895072593	0.5590587806175882	1.3059835978968317	0.2643640771874831	0.6065839440675955	1.7475922609345216	0.27431293553103964	0.4133109354814497	1.7536386523241063	0.341149402963556	0.4245808689989139	1.7433349233718882	0.2417298286861385	0.6542538786412189	1.8017836541964027	0.08957921460096854	0.5234675480416597	0.8973642917703101	0.08545792153137285	0.5253740089773141	1.2880580657167646	0.07346648927949939	0.5499527657448149	1.7271142943168865	0.10800855230904638	0.3377174089679704	1.7168704798032741	0.050497253343961226	0.3940777465367634	1.742572015077866	0.08759661178178041	0.5746472953456597	1.781961430375913	0.22405789261122167	0.5246493376991904	0.30349533195576384	0.3031195697152722	0.5299170391252471	0.050304398245804516	0.2805196129414452	0.4293403028402175	0.18037905518303438	0.36497909870513506	0.5697268465452181	0.42083784626196225	0.37260823867193393	0.442539796018675	0.652797053035283	0.26198284063456767	0.296418643464204	0.8078759087075202	0.17312344774578406	0.2582445757848934	0.9005397440358895	0.17772296018104555	0.2687479944003094	0.9264471461429233	0.18723474437811322	0.3066850394451759	0.938265258272118	0.0523765053210478	0.5400265104852431	0.37617607390581764	0.03585350379442644	0.4495228100482567	0.6208798416693958	0.13915389000719142	0.2795322994706101	0.7813759974658135	0.2048017043168695	0.2471613397786758	0.8606600268334939	0.20984342962377217	0.2294099051640199	0.8868512634209613	0.1675200274170387	0.26259954927118195	0.9190104811450561
77	1.305084745762712	0.30340992012681606	0.5504016097324073	0.892094594397215	0.28263054728342135	0.5595037550027466	1.308068734100215	0.264341197934992	0.6065925050724893	1.747593537412978	0.2743263937238112	0.4135946473132445	1.7538460707044448	0.340451423680297	0.42177754804039147	1.7412737120354105	0.24339424753815248	0.655324969149463	1.801785736716275	0.08958608701989383	0.52360516212974	0.8978294098470349	0.08679170821159564	0.5304161373833279	1.2920149693650773	0.07307387392540146	0.549895022166378	1.728927361360499	0.10865186513269678	0.3416998380459142	1.7191072433287393	0.05053076396123969	0.3940774599631213	1.7425250172146227	0.08759841718428307	0.574459357094575	1.7817388945351305	0.22406934625209982	0.5246283094230944	0.3034302762850262	0.30311977322411765	0.5298472231929622	0.05017681868309631	0.2800151504176356	0.42907588569531097	0.1791941643217979	0.3652763584444235	0.571009514237408	0.42301402413418787	0.37390525391203727	0.4423932860258305	0.6527223745447872	0.2613099186157489	0.2926311662546289	0.8077999253730098	0.17194689670141858	0.25833913738113734	0.9006452792548553	0.17679136462229464	0.26832587168317723	0.9271860187920641	0.1867124525943995	0.30339025987397894	0.9368131102990608	0.052379113921832116	0.5401459349345658	0.3762228389358185	0.035904398874124555	0.4494555133948237	0.6209442628863925	0.13926781706943958	0.2793067689275096	0.7825648300828016	0.20245788902150424	0.2532812731281167	0.862888338160044	0.20924884905501592	0.2338210215853915	0.8890774537304378	0.16534831875540737	0.2660016757452497	0.9188782931363397
78	1.3220338983050848	0.3033945315675933	0.550347885762924	0.8919955306587907	0.28267549416539084	0.5597288963205487	1.3106315235726824	0.26433327858313566	0.606569295115972	1.7475741280311996	0.274261253263151	0.4135184509589604	1.7537502679118304	0.3395831054601391	0.41787578461395297	1.7384351956097663	0.24463520594754773	0.6560858755255092	1.8017890075108243	0.08962147193807171	0.523667126502885	0.89778200044289	0.08867603526775182	0.534589221928728	1.296260666180617	0.07278816008894487	0.5498557153826508	1.730274467061435	0.10898084742129782	0.3448229457529013	1.7215205074172313	0.05055299162256491	0.3941124148591314	1.7425363832178529	0.08717164363667257	0.5742301863964394	1.7815094555849846	0.22407589762897784	0.5246201711671096	0.30336729627971903	0.3030021045860709	0.5300584452365779	0.049962390301798186	0.27897657007964516	0.4285551289277331	0.1782657922037924	0.36543245143866476	0.5716165722107877	0.42442996468497807	0.37434202941028344	0.4423878243091279	0.6527505906486706	0.2607432016883113	0.289838119172592	0.8081364252041043	0.17144938386610278	0.2585590437954065	0.9007276239160975	0.17527667159141017	0.266507218097043	0.9280827736139521	0.1861956293007209	0.2992531325953118	0.9354162698918218	0.052385738875761645	0.5402333434136488	0.37624118633050435	0.03600861636473445	0.4494365900879731	0.6209516273743	0.13906279413098926	0.278053993052901	0.7831229093122852	0.20044027834055209	0.25882713292094345	0.8651118795426447	0.20853984179396357	0.2385544589051993	0.8913995401692321	0.16274207627276674	0.268128857941183	0.9187883361222746
79	1.3389830508474576	0.3033842962700858	0.5503126581109734	0.8919216577059285	0.2827926929231045	0.5599178399491544	1.3123850677550317	0.2643489597619658	0.6065282056382335	1.7475603189461162	0.27398289610222776	0.4121960742697836	1.7527346857340966	0.33891225449608137	0.41476954030620383	1.736295240898314	0.24510063537706683	0.6562611107589418	1.8017893115307493	0.0896334647088879	0.5237054546401684	0.8976087217750944	0.09045592969943465	0.5365723758303744	1.2990008023856534	0.07266417646390969	0.5498487621196159	1.730836105768501	0.10895106679565292	0.34627901887728085	1.7232134901560694	0.050556497733131645	0.39415422815376366	1.742606928175272	0.08647411174352702	0.5740001509183716	1.7813628756762157	0.22408153997751076	0.5246231091731798	0.30331898939725666	0.3024522193352286	0.5313871249458557	0.04967990918471667	0.277675753076129	0.42792156896725325	0.1778522582434912	0.365433461123674	0.5714872611090136	0.42467991792576976	0.3743678079158144	0.4424954777665159	0.6527433978142516	0.2604201749098256	0.28868899975458934	0.8091095654140907	0.17139849813669175	0.2587959324545821	0.9008072252530079	0.17365310152200736	0.26303876747040555	0.9286585994369145	0.18545812457710192	0.29479867734226617	0.9342326354398427	0.052392961798904576	0.5402572658247141	0.37628041217779706	0.03608531598066912	0.4494333051651993	0.6209645399976651	0.13812376889507066	0.27503069744544784	0.7823399000791214	0.1994835181895908	0.26128559225993453	0.8657650894946978	0.20796724987678558	0.24089100255604834	0.8920416278995718	0.16014747603603482	0.2680673251614135	0.9190847486112674
